<?xml version="1.0" encoding="UTF-8"?>
<svg width="56" height="70" fill="none" version="1.1" viewBox="0 0 56 70" xmlns="http://www.w3.org/2000/svg">
 <path d="m37.609 68.593-13.453-7.8425-21.141-12.265c-1.1916-0.6964-1.9219-1.9731-1.9219-3.3658v-26.811c0-1.3541 0.73031-2.6308 1.9219-3.3271l23.063-13.425c1.1915-0.69638 2.6522-0.69638 3.8437 0l23.062 13.386c1.1916 0.6963 1.9219 1.973 1.9219 3.3658v26.811c0 1.3927-0.7303 2.6694-1.9219 3.3658l-14.414 8.3571c-0.5765 0.3482-0.9609 0.9672-0.9609 1.6636z" fill="#0f2b46" stroke="#fff" stroke-width="1px"/>
 <g fill="#fff">
  <path d="m18.697 19.51c1.5375-1.5088 3.9975-1.5088 5.535 0 1.6528 1.5862 1.6528 4.217 0 5.8032-1.5375 1.5088-3.9975 1.5088-5.535 0-1.6528-1.5862-1.6528-4.217 0-5.8032z"/>
  <path d="m35.994 29.607c1.5375-1.5089 3.9975-1.5089 5.535 0 1.6528 1.5862 1.6528 4.2169 0 5.8031-1.5375 1.5089-3.9975 1.5089-5.535 0-1.6528-1.5862-1.6528-4.2169 0-5.8031z"/>
  <path d="m18.697 40.285c1.5375-1.5088 3.9975-1.5088 5.535 0 1.6528 1.5862 1.6528 4.217 0 5.8032-1.5375 1.5088-3.9975 1.5088-5.535 0-1.6528-1.5862-1.6528-4.217 0-5.8032z"/>
  <path d="m23.387 24.577 11.531 6.693 1.9219-1.0833-11.531-6.7317z"/>
  <path d="m35.687 36.184-10.378 6.0353-1.9218-1.1219 10.378-5.9967z"/>
 </g>
</svg>
